<?xml version="1.0" encoding="UTF-8" standalone="no"?>
<!-- Created with Inkscape (http://www.inkscape.org/) -->

<svg
   xmlns:dc="http://purl.org/dc/elements/1.1/"
   xmlns:cc="http://creativecommons.org/ns#"
   xmlns:rdf="http://www.w3.org/1999/02/22-rdf-syntax-ns#"
   xmlns:svg="http://www.w3.org/2000/svg"
   xmlns="http://www.w3.org/2000/svg"
   xmlns:sodipodi="http://sodipodi.sourceforge.net/DTD/sodipodi-0.dtd"
   xmlns:inkscape="http://www.inkscape.org/namespaces/inkscape"
   version="1.1"
   id="svg2"
   xml:space="preserve"
   width="619.73334"
   height="444.80002"
   viewBox="0 0 619.73334 444.80002"
   sodipodi:docname="0.125inch_solacryl.svg"
   inkscape:version="0.92.3 (2405546, 2018-03-11)"><metadata
     id="metadata8"><rdf:RDF><cc:Work
         rdf:about=""><dc:format>image/svg+xml</dc:format><dc:type
           rdf:resource="http://purl.org/dc/dcmitype/StillImage" /><dc:title></dc:title></cc:Work></rdf:RDF></metadata><defs
     id="defs6" /><sodipodi:namedview
     pagecolor="#ffffff"
     bordercolor="#666666"
     borderopacity="1"
     objecttolerance="10"
     gridtolerance="10"
     guidetolerance="10"
     inkscape:pageopacity="0"
     inkscape:pageshadow="2"
     inkscape:window-width="1920"
     inkscape:window-height="1052"
     id="namedview4"
     showgrid="false"
     inkscape:document-units="mm"
     inkscape:zoom="0.52925989"
     inkscape:cx="309.86667"
     inkscape:cy="222.40001"
     inkscape:window-x="0"
     inkscape:window-y="0"
     inkscape:window-maximized="1"
     inkscape:current-layer="g10" /><g
     id="g10"
     inkscape:groupmode="layer"
     inkscape:label="0.125inch_solacryl"
     transform="matrix(1.3333333,0,0,-1.3333333,0,444.80001)"><g
       transform="matrix(1,0,0,-1,0,333.60001)"
       id="g14"><path
         inkscape:connector-curvature="0"
         id="path16"
         style="fill:none;stroke:#000000;stroke-width:0.80000001;stroke-linecap:butt;stroke-linejoin:miter;stroke-miterlimit:4;stroke-dasharray:none;stroke-opacity:1"
         d="M 9.859,297.527 V 275.266" /></g><g
       transform="matrix(1,0,0,-1,0,333.60001)"
       id="g18"><path
         inkscape:connector-curvature="0"
         id="path20"
         style="fill:none;stroke:#000000;stroke-width:0.80000001;stroke-linecap:butt;stroke-linejoin:miter;stroke-miterlimit:4;stroke-dasharray:none;stroke-opacity:1"
         d="m 9.859,275.266 h 9" /></g><g
       transform="matrix(1,0,0,-1,0,333.60001)"
       id="g22"><path
         inkscape:connector-curvature="0"
         id="path24"
         style="fill:none;stroke:#000000;stroke-width:0.80000001;stroke-linecap:butt;stroke-linejoin:miter;stroke-miterlimit:4;stroke-dasharray:none;stroke-opacity:1"
         d="M 18.859,275.266 V 253.645" /></g><g
       transform="matrix(1,0,0,-1,0,333.60001)"
       id="g26"><path
         inkscape:connector-curvature="0"
         id="path28"
         style="fill:none;stroke:#000000;stroke-width:0.80000001;stroke-linecap:butt;stroke-linejoin:miter;stroke-miterlimit:4;stroke-dasharray:none;stroke-opacity:1"
         d="m 18.859,253.645 h -9" /></g><g
       transform="matrix(1,0,0,-1,0,333.60001)"
       id="g30"><path
         inkscape:connector-curvature="0"
         id="path32"
         style="fill:none;stroke:#000000;stroke-width:0.80000001;stroke-linecap:butt;stroke-linejoin:miter;stroke-miterlimit:4;stroke-dasharray:none;stroke-opacity:1"
         d="M 9.859,253.645 V 231.172" /></g><g
       transform="matrix(1,0,0,-1,0,333.60001)"
       id="g34"><path
         inkscape:connector-curvature="0"
         id="path36"
         style="fill:none;stroke:#000000;stroke-width:0.80000001;stroke-linecap:butt;stroke-linejoin:miter;stroke-miterlimit:4;stroke-dasharray:none;stroke-opacity:1"
         d="m 9.859,231.172 h 9" /></g><g
       transform="matrix(1,0,0,-1,0,333.60001)"
       id="g38"><path
         inkscape:connector-curvature="0"
         id="path40"
         style="fill:none;stroke:#000000;stroke-width:0.80000001;stroke-linecap:butt;stroke-linejoin:miter;stroke-miterlimit:4;stroke-dasharray:none;stroke-opacity:1"
         d="M 18.859,231.172 V 209.551" /></g><g
       transform="matrix(1,0,0,-1,0,333.60001)"
       id="g42"><path
         inkscape:connector-curvature="0"
         id="path44"
         style="fill:none;stroke:#000000;stroke-width:0.80000001;stroke-linecap:butt;stroke-linejoin:miter;stroke-miterlimit:4;stroke-dasharray:none;stroke-opacity:1"
         d="m 18.859,209.551 h -9" /></g><g
       transform="matrix(1,0,0,-1,0,333.60001)"
       id="g46"><path
         inkscape:connector-curvature="0"
         id="path48"
         style="fill:none;stroke:#000000;stroke-width:0.80000001;stroke-linecap:butt;stroke-linejoin:miter;stroke-miterlimit:4;stroke-dasharray:none;stroke-opacity:1"
         d="M 9.859,209.551 V 187.078" /></g><g
       transform="matrix(1,0,0,-1,0,333.60001)"
       id="g50"><path
         inkscape:connector-curvature="0"
         id="path52"
         style="fill:none;stroke:#000000;stroke-width:0.80000001;stroke-linecap:butt;stroke-linejoin:miter;stroke-miterlimit:4;stroke-dasharray:none;stroke-opacity:1"
         d="m 9.859,187.078 h 9" /></g><g
       transform="matrix(1,0,0,-1,0,333.60001)"
       id="g54"><path
         inkscape:connector-curvature="0"
         id="path56"
         style="fill:none;stroke:#000000;stroke-width:0.80000001;stroke-linecap:butt;stroke-linejoin:miter;stroke-miterlimit:4;stroke-dasharray:none;stroke-opacity:1"
         d="M 18.859,187.078 V 165.453" /></g><g
       transform="matrix(1,0,0,-1,0,333.60001)"
       id="g58"><path
         inkscape:connector-curvature="0"
         id="path60"
         style="fill:none;stroke:#000000;stroke-width:0.80000001;stroke-linecap:butt;stroke-linejoin:miter;stroke-miterlimit:4;stroke-dasharray:none;stroke-opacity:1"
         d="m 18.859,165.453 h -9" /></g><g
       transform="matrix(1,0,0,-1,0,333.60001)"
       id="g62"><path
         inkscape:connector-curvature="0"
         id="path64"
         style="fill:none;stroke:#000000;stroke-width:0.80000001;stroke-linecap:butt;stroke-linejoin:miter;stroke-miterlimit:4;stroke-dasharray:none;stroke-opacity:1"
         d="M 9.859,165.453 V 142.984" /></g><g
       transform="matrix(1,0,0,-1,0,333.60001)"
       id="g66"><path
         inkscape:connector-curvature="0"
         id="path68"
         style="fill:none;stroke:#000000;stroke-width:0.80000001;stroke-linecap:butt;stroke-linejoin:miter;stroke-miterlimit:4;stroke-dasharray:none;stroke-opacity:1"
         d="m 9.859,142.984 h 9" /></g><g
       transform="matrix(1,0,0,-1,0,333.60001)"
       id="g70"><path
         inkscape:connector-curvature="0"
         id="path72"
         style="fill:none;stroke:#000000;stroke-width:0.80000001;stroke-linecap:butt;stroke-linejoin:miter;stroke-miterlimit:4;stroke-dasharray:none;stroke-opacity:1"
         d="M 18.859,142.984 V 121.359" /></g><g
       transform="matrix(1,0,0,-1,0,333.60001)"
       id="g74"><path
         inkscape:connector-curvature="0"
         id="path76"
         style="fill:none;stroke:#000000;stroke-width:0.80000001;stroke-linecap:butt;stroke-linejoin:miter;stroke-miterlimit:4;stroke-dasharray:none;stroke-opacity:1"
         d="m 18.859,121.359 h -9" /></g><g
       transform="matrix(1,0,0,-1,0,333.60001)"
       id="g78"><path
         inkscape:connector-curvature="0"
         id="path80"
         style="fill:none;stroke:#000000;stroke-width:0.80000001;stroke-linecap:butt;stroke-linejoin:miter;stroke-miterlimit:4;stroke-dasharray:none;stroke-opacity:1"
         d="M 9.859,121.359 V 99.102" /></g><g
       transform="matrix(1,0,0,-1,0,333.60001)"
       id="g82"><path
         inkscape:connector-curvature="0"
         id="path84"
         style="fill:none;stroke:#000000;stroke-width:0.80000001;stroke-linecap:butt;stroke-linejoin:miter;stroke-miterlimit:4;stroke-dasharray:none;stroke-opacity:1"
         d="M 9.859,99.102 H 226.285" /></g><g
       transform="matrix(1,0,0,-1,0,333.60001)"
       id="g86"><path
         inkscape:connector-curvature="0"
         id="path88"
         style="fill:none;stroke:#000000;stroke-width:0.80000001;stroke-linecap:butt;stroke-linejoin:miter;stroke-miterlimit:4;stroke-dasharray:none;stroke-opacity:1"
         d="m 226.285,99.102 v 22.257" /></g><g
       transform="matrix(1,0,0,-1,0,333.60001)"
       id="g90"><path
         inkscape:connector-curvature="0"
         id="path92"
         style="fill:none;stroke:#000000;stroke-width:0.80000001;stroke-linecap:butt;stroke-linejoin:miter;stroke-miterlimit:4;stroke-dasharray:none;stroke-opacity:1"
         d="m 226.285,121.359 h -9" /></g><g
       transform="matrix(1,0,0,-1,0,333.60001)"
       id="g94"><path
         inkscape:connector-curvature="0"
         id="path96"
         style="fill:none;stroke:#000000;stroke-width:0.80000001;stroke-linecap:butt;stroke-linejoin:miter;stroke-miterlimit:4;stroke-dasharray:none;stroke-opacity:1"
         d="m 217.285,121.359 v 21.625" /></g><g
       transform="matrix(1,0,0,-1,0,333.60001)"
       id="g98"><path
         inkscape:connector-curvature="0"
         id="path100"
         style="fill:none;stroke:#000000;stroke-width:0.80000001;stroke-linecap:butt;stroke-linejoin:miter;stroke-miterlimit:4;stroke-dasharray:none;stroke-opacity:1"
         d="m 217.285,142.984 h 9" /></g><g
       transform="matrix(1,0,0,-1,0,333.60001)"
       id="g102"><path
         inkscape:connector-curvature="0"
         id="path104"
         style="fill:none;stroke:#000000;stroke-width:0.80000001;stroke-linecap:butt;stroke-linejoin:miter;stroke-miterlimit:4;stroke-dasharray:none;stroke-opacity:1"
         d="m 226.285,142.984 v 22.469" /></g><g
       transform="matrix(1,0,0,-1,0,333.60001)"
       id="g106"><path
         inkscape:connector-curvature="0"
         id="path108"
         style="fill:none;stroke:#000000;stroke-width:0.80000001;stroke-linecap:butt;stroke-linejoin:miter;stroke-miterlimit:4;stroke-dasharray:none;stroke-opacity:1"
         d="m 226.285,165.453 h -9" /></g><g
       transform="matrix(1,0,0,-1,0,333.60001)"
       id="g110"><path
         inkscape:connector-curvature="0"
         id="path112"
         style="fill:none;stroke:#000000;stroke-width:0.80000001;stroke-linecap:butt;stroke-linejoin:miter;stroke-miterlimit:4;stroke-dasharray:none;stroke-opacity:1"
         d="m 217.285,165.453 v 21.625" /></g><g
       transform="matrix(1,0,0,-1,0,333.60001)"
       id="g114"><path
         inkscape:connector-curvature="0"
         id="path116"
         style="fill:none;stroke:#000000;stroke-width:0.80000001;stroke-linecap:butt;stroke-linejoin:miter;stroke-miterlimit:4;stroke-dasharray:none;stroke-opacity:1"
         d="m 217.285,187.078 h 9" /></g><g
       transform="matrix(1,0,0,-1,0,333.60001)"
       id="g118"><path
         inkscape:connector-curvature="0"
         id="path120"
         style="fill:none;stroke:#000000;stroke-width:0.80000001;stroke-linecap:butt;stroke-linejoin:miter;stroke-miterlimit:4;stroke-dasharray:none;stroke-opacity:1"
         d="m 226.285,187.078 v 22.473" /></g><g
       transform="matrix(1,0,0,-1,0,333.60001)"
       id="g122"><path
         inkscape:connector-curvature="0"
         id="path124"
         style="fill:none;stroke:#000000;stroke-width:0.80000001;stroke-linecap:butt;stroke-linejoin:miter;stroke-miterlimit:4;stroke-dasharray:none;stroke-opacity:1"
         d="m 226.285,209.551 h -9" /></g><g
       transform="matrix(1,0,0,-1,0,333.60001)"
       id="g126"><path
         inkscape:connector-curvature="0"
         id="path128"
         style="fill:none;stroke:#000000;stroke-width:0.80000001;stroke-linecap:butt;stroke-linejoin:miter;stroke-miterlimit:4;stroke-dasharray:none;stroke-opacity:1"
         d="m 217.285,209.551 v 21.621" /></g><g
       transform="matrix(1,0,0,-1,0,333.60001)"
       id="g130"><path
         inkscape:connector-curvature="0"
         id="path132"
         style="fill:none;stroke:#000000;stroke-width:0.80000001;stroke-linecap:butt;stroke-linejoin:miter;stroke-miterlimit:4;stroke-dasharray:none;stroke-opacity:1"
         d="m 217.285,231.172 h 9" /></g><g
       transform="matrix(1,0,0,-1,0,333.60001)"
       id="g134"><path
         inkscape:connector-curvature="0"
         id="path136"
         style="fill:none;stroke:#000000;stroke-width:0.80000001;stroke-linecap:butt;stroke-linejoin:miter;stroke-miterlimit:4;stroke-dasharray:none;stroke-opacity:1"
         d="m 226.285,231.172 v 22.473" /></g><g
       transform="matrix(1,0,0,-1,0,333.60001)"
       id="g138"><path
         inkscape:connector-curvature="0"
         id="path140"
         style="fill:none;stroke:#000000;stroke-width:0.80000001;stroke-linecap:butt;stroke-linejoin:miter;stroke-miterlimit:4;stroke-dasharray:none;stroke-opacity:1"
         d="m 226.285,253.645 h -9" /></g><g
       transform="matrix(1,0,0,-1,0,333.60001)"
       id="g142"><path
         inkscape:connector-curvature="0"
         id="path144"
         style="fill:none;stroke:#000000;stroke-width:0.80000001;stroke-linecap:butt;stroke-linejoin:miter;stroke-miterlimit:4;stroke-dasharray:none;stroke-opacity:1"
         d="m 217.285,253.645 v 21.621" /></g><g
       transform="matrix(1,0,0,-1,0,333.60001)"
       id="g146"><path
         inkscape:connector-curvature="0"
         id="path148"
         style="fill:none;stroke:#000000;stroke-width:0.80000001;stroke-linecap:butt;stroke-linejoin:miter;stroke-miterlimit:4;stroke-dasharray:none;stroke-opacity:1"
         d="m 217.285,275.266 h 9" /></g><g
       transform="matrix(1,0,0,-1,0,333.60001)"
       id="g150"><path
         inkscape:connector-curvature="0"
         id="path152"
         style="fill:none;stroke:#000000;stroke-width:0.80000001;stroke-linecap:butt;stroke-linejoin:miter;stroke-miterlimit:4;stroke-dasharray:none;stroke-opacity:1"
         d="m 226.285,275.266 v 22.261" /></g><g
       transform="matrix(1,0,0,-1,0,333.60001)"
       id="g154"><path
         inkscape:connector-curvature="0"
         id="path156"
         style="fill:none;stroke:#000000;stroke-width:0.80000001;stroke-linecap:butt;stroke-linejoin:miter;stroke-miterlimit:4;stroke-dasharray:none;stroke-opacity:1"
         d="M 226.285,297.527 H 9.859" /></g><g
       transform="matrix(1,0,0,-1,0,333.60001)"
       id="g158"><path
         inkscape:connector-curvature="0"
         id="path160"
         style="fill:none;stroke:#000000;stroke-width:0.80000001;stroke-linecap:butt;stroke-linejoin:miter;stroke-miterlimit:4;stroke-dasharray:none;stroke-opacity:1"
         d="m 81.586,89.301 v -72" /></g><g
       transform="matrix(1,0,0,-1,0,333.60001)"
       id="g162"><path
         inkscape:connector-curvature="0"
         id="path164"
         style="fill:none;stroke:#000000;stroke-width:0.80000001;stroke-linecap:butt;stroke-linejoin:miter;stroke-miterlimit:4;stroke-dasharray:none;stroke-opacity:1"
         d="m 81.586,17.301 h 72" /></g><g
       transform="matrix(1,0,0,-1,0,333.60001)"
       id="g166"><path
         inkscape:connector-curvature="0"
         id="path168"
         style="fill:none;stroke:#000000;stroke-width:0.80000001;stroke-linecap:butt;stroke-linejoin:miter;stroke-miterlimit:4;stroke-dasharray:none;stroke-opacity:1"
         d="m 153.586,17.301 v 72" /></g><path
       inkscape:connector-curvature="0"
       id="path170"
       style="fill:#000000;fill-opacity:1;fill-rule:nonzero;stroke:none"
       d="m 96.637,297.127 h 2.265 v 7.797 l -2.468,-0.5 v 1.266 l 2.453,0.484 h 1.375 v -9.047 h 2.25 v -1.156 h -5.875 z m 13.332,6.5 h 1.265 v -7.656 h -1.265 z m 0,2.985 h 1.265 v -1.594 h -1.265 z m 10.367,-6.016 v -4.625 h -1.266 v 4.578 c 0,0.727 -0.14,1.27 -0.422,1.625 -0.281,0.364 -0.703,0.547 -1.265,0.547 -0.68,0 -1.215,-0.219 -1.61,-0.656 -0.398,-0.43 -0.593,-1.016 -0.593,-1.766 v -4.328 h -1.266 v 7.656 h 1.266 v -1.187 c 0.3,0.457 0.656,0.801 1.062,1.031 0.414,0.227 0.891,0.344 1.422,0.344 0.875,0 1.535,-0.277 1.984,-0.828 0.457,-0.543 0.688,-1.34 0.688,-2.391 z m 8.281,2.734 v -1.171 c -0.355,0.195 -0.715,0.343 -1.078,0.437 -0.355,0.102 -0.715,0.156 -1.078,0.156 -0.813,0 -1.449,-0.261 -1.906,-0.781 -0.45,-0.523 -0.672,-1.246 -0.672,-2.172 0,-0.937 0.222,-1.668 0.672,-2.187 0.457,-0.512 1.093,-0.766 1.906,-0.766 0.363,0 0.723,0.047 1.078,0.141 0.363,0.093 0.723,0.238 1.078,0.437 v -1.156 c -0.355,-0.168 -0.719,-0.293 -1.094,-0.375 -0.375,-0.082 -0.773,-0.125 -1.187,-0.125 -1.156,0 -2.078,0.359 -2.766,1.078 -0.679,0.727 -1.015,1.711 -1.015,2.953 0,1.239 0.343,2.219 1.031,2.938 0.687,0.718 1.629,1.078 2.828,1.078 0.383,0 0.758,-0.043 1.125,-0.125 0.375,-0.074 0.734,-0.195 1.078,-0.36 z m 8.793,-2.734 v -4.625 h -1.265 v 4.578 c 0,0.727 -0.141,1.27 -0.422,1.625 -0.282,0.364 -0.703,0.547 -1.266,0.547 -0.68,0 -1.215,-0.219 -1.609,-0.656 -0.399,-0.43 -0.594,-1.016 -0.594,-1.766 v -4.328 h -1.266 v 10.641 h 1.266 v -4.172 c 0.301,0.457 0.656,0.801 1.062,1.031 0.414,0.227 0.891,0.344 1.422,0.344 0.875,0 1.535,-0.277 1.985,-0.828 0.457,-0.543 0.687,-1.34 0.687,-2.391 z" /><path
       inkscape:connector-curvature="0"
       id="path172"
       style="fill:#000000;fill-opacity:1;fill-rule:nonzero;stroke:none"
       d="m 88.223,284.455 c -0.137,0.083 -0.289,0.141 -0.453,0.172 -0.168,0.039 -0.352,0.063 -0.547,0.063 -0.719,0 -1.274,-0.235 -1.657,-0.703 -0.375,-0.461 -0.562,-1.121 -0.562,-1.985 v -4.031 h -1.266 v 7.656 h 1.266 v -1.187 c 0.269,0.469 0.613,0.812 1.031,1.031 0.426,0.227 0.942,0.344 1.547,0.344 0.094,0 0.191,-0.008 0.297,-0.016 0.101,-0.011 0.219,-0.031 0.344,-0.062 z m 7.75,-2.343 v -0.61 h -5.797 c 0.062,-0.867 0.32,-1.527 0.781,-1.984 0.469,-0.449 1.117,-0.672 1.953,-0.672 0.488,0 0.957,0.055 1.406,0.172 0.457,0.113 0.911,0.289 1.36,0.531 v -1.187 c -0.461,-0.188 -0.93,-0.336 -1.406,-0.438 -0.469,-0.101 -0.946,-0.156 -1.422,-0.156 -1.231,0 -2.203,0.352 -2.922,1.062 -0.711,0.719 -1.063,1.68 -1.063,2.891 0,1.258 0.336,2.254 1.016,2.984 0.676,0.739 1.594,1.11 2.75,1.11 1.031,0 1.844,-0.336 2.437,-1 0.602,-0.656 0.907,-1.559 0.907,-2.703 z m -1.266,0.375 c -0.012,0.687 -0.203,1.234 -0.578,1.64 -0.375,0.414 -0.871,0.625 -1.484,0.625 -0.711,0 -1.278,-0.203 -1.704,-0.609 -0.418,-0.398 -0.656,-0.953 -0.718,-1.672 z m 7.453,6.125 v -1.047 h -1.203 c -0.461,0 -0.777,-0.094 -0.953,-0.281 -0.168,-0.18 -0.25,-0.508 -0.25,-0.985 v -0.672 h 2.062 v -0.984 h -2.062 v -6.672 h -1.266 v 6.672 h -1.203 v 0.984 h 1.203 v 0.532 c 0,0.851 0.196,1.472 0.594,1.859 0.395,0.395 1.02,0.594 1.875,0.594 z m 7.735,-6.5 v -0.61 h -5.797 c 0.062,-0.867 0.32,-1.527 0.781,-1.984 0.469,-0.449 1.117,-0.672 1.953,-0.672 0.488,0 0.957,0.055 1.406,0.172 0.457,0.113 0.91,0.289 1.36,0.531 v -1.187 c -0.461,-0.188 -0.93,-0.336 -1.407,-0.438 -0.468,-0.101 -0.945,-0.156 -1.421,-0.156 -1.231,0 -2.204,0.352 -2.922,1.062 -0.711,0.719 -1.063,1.68 -1.063,2.891 0,1.258 0.336,2.254 1.016,2.984 0.676,0.739 1.594,1.11 2.75,1.11 1.031,0 1.844,-0.336 2.437,-1 0.602,-0.656 0.907,-1.559 0.907,-2.703 z m -1.266,0.375 c -0.012,0.687 -0.203,1.234 -0.578,1.64 -0.375,0.414 -0.871,0.625 -1.485,0.625 -0.711,0 -1.277,-0.203 -1.703,-0.609 -0.418,-0.398 -0.656,-0.953 -0.718,-1.672 z m 8,1.968 c -0.137,0.083 -0.289,0.141 -0.453,0.172 -0.168,0.039 -0.352,0.063 -0.547,0.063 -0.719,0 -1.274,-0.235 -1.656,-0.703 -0.375,-0.461 -0.563,-1.121 -0.563,-1.985 v -4.031 h -1.265 v 7.656 h 1.265 v -1.187 c 0.27,0.469 0.613,0.812 1.031,1.031 0.426,0.227 0.942,0.344 1.547,0.344 0.094,0 0.192,-0.008 0.297,-0.016 0.102,-0.011 0.219,-0.031 0.344,-0.062 z m 7.75,-2.343 v -0.61 h -5.797 c 0.063,-0.867 0.32,-1.527 0.781,-1.984 0.469,-0.449 1.117,-0.672 1.953,-0.672 0.489,0 0.957,0.055 1.407,0.172 0.457,0.113 0.91,0.289 1.359,0.531 v -1.187 c -0.461,-0.188 -0.93,-0.336 -1.406,-0.438 -0.469,-0.101 -0.946,-0.156 -1.422,-0.156 -1.231,0 -2.203,0.352 -2.922,1.062 -0.711,0.719 -1.062,1.68 -1.062,2.891 0,1.258 0.335,2.254 1.015,2.984 0.676,0.739 1.594,1.11 2.75,1.11 1.031,0 1.844,-0.336 2.438,-1 0.601,-0.656 0.906,-1.559 0.906,-2.703 z m -1.266,0.375 c -0.011,0.687 -0.203,1.234 -0.578,1.64 -0.375,0.414 -0.871,0.625 -1.484,0.625 -0.711,0 -1.278,-0.203 -1.703,-0.609 -0.418,-0.398 -0.657,-0.953 -0.719,-1.672 z m 9.938,0.109 v -4.625 h -1.266 v 4.578 c 0,0.727 -0.14,1.27 -0.422,1.625 -0.281,0.364 -0.703,0.547 -1.265,0.547 -0.68,0 -1.215,-0.219 -1.61,-0.656 -0.398,-0.43 -0.593,-1.016 -0.593,-1.766 v -4.328 h -1.266 v 7.656 h 1.266 v -1.187 c 0.3,0.457 0.656,0.801 1.062,1.031 0.414,0.227 0.891,0.344 1.422,0.344 0.875,0 1.535,-0.277 1.984,-0.828 0.457,-0.543 0.688,-1.34 0.688,-2.391 z m 8.281,2.734 v -1.171 c -0.355,0.195 -0.715,0.343 -1.078,0.437 -0.356,0.102 -0.715,0.156 -1.078,0.156 -0.813,0 -1.449,-0.261 -1.906,-0.781 -0.45,-0.523 -0.672,-1.246 -0.672,-2.172 0,-0.937 0.222,-1.668 0.672,-2.187 0.457,-0.512 1.093,-0.766 1.906,-0.766 0.363,0 0.722,0.047 1.078,0.141 0.363,0.093 0.723,0.238 1.078,0.437 v -1.156 c -0.355,-0.168 -0.719,-0.293 -1.094,-0.375 -0.375,-0.082 -0.773,-0.125 -1.187,-0.125 -1.156,0 -2.078,0.359 -2.766,1.078 -0.68,0.727 -1.015,1.711 -1.015,2.953 0,1.239 0.343,2.219 1.031,2.938 0.687,0.718 1.629,1.078 2.828,1.078 0.383,0 0.758,-0.043 1.125,-0.125 0.375,-0.074 0.734,-0.195 1.078,-0.36 z m 8.977,-3.218 v -0.61 h -5.797 c 0.062,-0.867 0.32,-1.527 0.781,-1.984 0.469,-0.449 1.117,-0.672 1.953,-0.672 0.488,0 0.957,0.055 1.406,0.172 0.457,0.113 0.91,0.289 1.36,0.531 v -1.187 c -0.461,-0.188 -0.93,-0.336 -1.407,-0.438 -0.468,-0.101 -0.945,-0.156 -1.421,-0.156 -1.231,0 -2.204,0.352 -2.922,1.062 -0.711,0.719 -1.063,1.68 -1.063,2.891 0,1.258 0.336,2.254 1.016,2.984 0.676,0.739 1.594,1.11 2.75,1.11 1.031,0 1.844,-0.336 2.437,-1 0.602,-0.656 0.907,-1.559 0.907,-2.703 z m -1.266,0.375 c -0.012,0.687 -0.203,1.234 -0.578,1.64 -0.375,0.414 -0.871,0.625 -1.485,0.625 -0.71,0 -1.277,-0.203 -1.703,-0.609 -0.418,-0.398 -0.656,-0.953 -0.718,-1.672 z" /><path
       inkscape:connector-curvature="0"
       id="path174"
       style="fill:#000000;fill-opacity:1;fill-rule:nonzero;stroke:none"
       d="m 106.176,267.33 v -1.171 c -0.356,0.195 -0.715,0.343 -1.078,0.437 -0.356,0.102 -0.715,0.156 -1.078,0.156 -0.813,0 -1.45,-0.261 -1.907,-0.781 -0.449,-0.523 -0.672,-1.246 -0.672,-2.172 0,-0.937 0.223,-1.668 0.672,-2.187 0.457,-0.512 1.094,-0.766 1.907,-0.766 0.363,0 0.722,0.047 1.078,0.141 0.363,0.093 0.722,0.238 1.078,0.437 v -1.156 c -0.356,-0.168 -0.719,-0.293 -1.094,-0.375 -0.375,-0.082 -0.773,-0.125 -1.187,-0.125 -1.157,0 -2.079,0.359 -2.766,1.078 -0.68,0.727 -1.016,1.711 -1.016,2.953 0,1.239 0.344,2.219 1.032,2.938 0.687,0.718 1.628,1.078 2.828,1.078 0.382,0 0.757,-0.043 1.125,-0.125 0.375,-0.074 0.734,-0.195 1.078,-0.36 z m 2.289,-4.343 v 4.64 h 1.265 v -4.593 c 0,-0.719 0.141,-1.262 0.422,-1.625 0.282,-0.368 0.703,-0.547 1.266,-0.547 0.676,0 1.211,0.211 1.609,0.64 0.395,0.438 0.594,1.032 0.594,1.782 v 4.343 h 1.266 v -7.656 h -1.266 v 1.172 c -0.305,-0.461 -0.656,-0.805 -1.062,-1.031 -0.407,-0.227 -0.875,-0.344 -1.407,-0.344 -0.875,0 -1.543,0.27 -2,0.812 -0.461,0.551 -0.687,1.352 -0.687,2.407 z m 3.172,4.828 z m 11.593,-4.016 c 0,0.914 -0.195,1.633 -0.578,2.156 -0.375,0.532 -0.898,0.797 -1.562,0.797 -0.668,0 -1.195,-0.265 -1.578,-0.797 -0.375,-0.523 -0.563,-1.242 -0.563,-2.156 0,-0.929 0.188,-1.656 0.563,-2.187 0.383,-0.524 0.91,-0.782 1.578,-0.782 0.664,0 1.187,0.258 1.562,0.782 0.383,0.531 0.578,1.258 0.578,2.187 z m -4.281,2.672 c 0.27,0.445 0.602,0.781 1,1 0.406,0.227 0.891,0.344 1.453,0.344 0.926,0 1.68,-0.371 2.266,-1.11 0.582,-0.742 0.875,-1.71 0.875,-2.906 0,-1.211 -0.293,-2.183 -0.875,-2.922 -0.586,-0.742 -1.34,-1.109 -2.266,-1.109 -0.562,0 -1.047,0.109 -1.453,0.328 -0.398,0.227 -0.73,0.57 -1,1.031 v -1.156 h -1.265 v 10.641 h 1.265 z m 14.485,-2.359 v -0.61 h -5.797 c 0.062,-0.867 0.32,-1.527 0.781,-1.984 0.469,-0.449 1.117,-0.672 1.953,-0.672 0.488,0 0.957,0.055 1.406,0.172 0.457,0.113 0.911,0.289 1.36,0.531 v -1.187 c -0.461,-0.188 -0.93,-0.336 -1.407,-0.438 -0.468,-0.101 -0.945,-0.156 -1.421,-0.156 -1.231,0 -2.204,0.352 -2.922,1.062 -0.711,0.719 -1.063,1.68 -1.063,2.891 0,1.258 0.336,2.254 1.016,2.984 0.676,0.739 1.594,1.11 2.75,1.11 1.031,0 1.844,-0.336 2.437,-1 0.602,-0.656 0.907,-1.559 0.907,-2.703 z m -1.266,0.375 c -0.012,0.687 -0.203,1.234 -0.578,1.64 -0.375,0.414 -0.871,0.625 -1.485,0.625 -0.71,0 -1.277,-0.203 -1.703,-0.609 -0.418,-0.398 -0.656,-0.953 -0.718,-1.672 z" /><g
       transform="matrix(1,0,0,-1,0,333.60001)"
       id="g176"><path
         inkscape:connector-curvature="0"
         id="path178"
         style="fill:none;stroke:#000000;stroke-width:0.80000001;stroke-linecap:butt;stroke-linejoin:miter;stroke-miterlimit:4;stroke-dasharray:none;stroke-opacity:1"
         d="m 153.586,89.301 h -72" /></g><g
       transform="matrix(0,-1,-1,0,0,333.60001)"
       id="g180"><path
         inkscape:connector-curvature="0"
         id="path182"
         style="fill:none;stroke:#000000;stroke-width:0.80000001;stroke-linecap:butt;stroke-linejoin:miter;stroke-miterlimit:4;stroke-dasharray:none;stroke-opacity:1"
         d="M 49.508,-235.184 V -453.453" /></g><g
       transform="matrix(0,-1,-1,0,0,333.60001)"
       id="g184"><path
         inkscape:connector-curvature="0"
         id="path186"
         style="fill:none;stroke:#000000;stroke-width:0.80000001;stroke-linecap:butt;stroke-linejoin:miter;stroke-miterlimit:4;stroke-dasharray:none;stroke-opacity:1"
         d="M 49.508,-453.453 H 298.105" /></g><g
       transform="matrix(0,-1,-1,0,0,333.60001)"
       id="g188"><path
         inkscape:connector-curvature="0"
         id="path190"
         style="fill:none;stroke:#000000;stroke-width:0.80000001;stroke-linecap:butt;stroke-linejoin:miter;stroke-miterlimit:4;stroke-dasharray:none;stroke-opacity:1"
         d="m 298.105,-453.453 v 218.269" /></g><g
       transform="matrix(0,-1,-1,0,0,333.60001)"
       id="g192"><path
         inkscape:connector-curvature="0"
         id="path194"
         style="fill:none;stroke:#000000;stroke-width:0.80000001;stroke-linecap:butt;stroke-linejoin:miter;stroke-miterlimit:4;stroke-dasharray:none;stroke-opacity:1"
         d="M 298.105,-235.184 H 49.508" /></g></g></svg>