<?xml version="1.0" encoding="UTF-8" standalone="no"?>
<!-- Created with Inkscape (http://www.inkscape.org/) -->

<svg
   xmlns:dc="http://purl.org/dc/elements/1.1/"
   xmlns:cc="http://creativecommons.org/ns#"
   xmlns:rdf="http://www.w3.org/1999/02/22-rdf-syntax-ns#"
   xmlns:svg="http://www.w3.org/2000/svg"
   xmlns="http://www.w3.org/2000/svg"
   xmlns:sodipodi="http://sodipodi.sourceforge.net/DTD/sodipodi-0.dtd"
   xmlns:inkscape="http://www.inkscape.org/namespaces/inkscape"
   version="1.1"
   id="svg2"
   xml:space="preserve"
   width="838.39996"
   height="1190.4"
   viewBox="0 0 838.39996 1190.4"
   sodipodi:docname="0.25inch_clear_acrylic.svg"
   inkscape:version="0.92.3 (2405546, 2018-03-11)"><metadata
     id="metadata8"><rdf:RDF><cc:Work
         rdf:about=""><dc:format>image/svg+xml</dc:format><dc:type
           rdf:resource="http://purl.org/dc/dcmitype/StillImage" /><dc:title></dc:title></cc:Work></rdf:RDF></metadata><defs
     id="defs6" /><sodipodi:namedview
     pagecolor="#ffffff"
     bordercolor="#666666"
     borderopacity="1"
     objecttolerance="10"
     gridtolerance="10"
     guidetolerance="10"
     inkscape:pageopacity="0"
     inkscape:pageshadow="2"
     inkscape:window-width="1920"
     inkscape:window-height="1052"
     id="namedview4"
     showgrid="false"
     inkscape:zoom="0.56074327"
     inkscape:cx="419.19998"
     inkscape:cy="595.20001"
     inkscape:window-x="0"
     inkscape:window-y="0"
     inkscape:window-maximized="1"
     inkscape:current-layer="g10" /><g
     id="g10"
     inkscape:groupmode="layer"
     inkscape:label="0.25inch_clear_acrylic"
     transform="matrix(1.3333333,0,0,-1.3333333,0,1190.4)"><g
       transform="matrix(1,0,0,-1,0,892.79999)"
       id="g14"><path
         inkscape:connector-curvature="0"
         id="path16"
         style="fill:none;stroke:#000000;stroke-width:0.80000001;stroke-linecap:butt;stroke-linejoin:miter;stroke-miterlimit:4;stroke-dasharray:none;stroke-opacity:1"
         d="M 45.418,564.934 V 346.664" /></g><g
       transform="matrix(1,0,0,-1,0,892.79999)"
       id="g18"><path
         inkscape:connector-curvature="0"
         id="path20"
         style="fill:none;stroke:#000000;stroke-width:0.80000001;stroke-linecap:butt;stroke-linejoin:miter;stroke-miterlimit:4;stroke-dasharray:none;stroke-opacity:1"
         d="M 45.418,346.664 H 153.633" /></g><g
       transform="matrix(1,0,0,-1,0,892.79999)"
       id="g22"><path
         inkscape:connector-curvature="0"
         id="path24"
         style="fill:none;stroke:#000000;stroke-width:0.80000001;stroke-linecap:butt;stroke-linejoin:miter;stroke-miterlimit:4;stroke-dasharray:none;stroke-opacity:1"
         d="m 153.633,346.664 v 218.27" /></g><g
       transform="matrix(1,0,0,-1,0,892.79999)"
       id="g26"><path
         inkscape:connector-curvature="0"
         id="path28"
         style="fill:none;stroke:#000000;stroke-width:0.80000001;stroke-linecap:butt;stroke-linejoin:miter;stroke-miterlimit:4;stroke-dasharray:none;stroke-opacity:1"
         d="M 153.633,564.934 H 45.418" /></g><g
       transform="matrix(1,0,0,-1,0,892.79999)"
       id="g30"><path
         inkscape:connector-curvature="0"
         id="path32"
         style="fill:none;stroke:#000000;stroke-width:0.80000001;stroke-linecap:butt;stroke-linejoin:miter;stroke-miterlimit:4;stroke-dasharray:none;stroke-opacity:1"
         d="M 44.992,331.273 V 113.004" /></g><g
       transform="matrix(1,0,0,-1,0,892.79999)"
       id="g34"><path
         inkscape:connector-curvature="0"
         id="path36"
         style="fill:none;stroke:#000000;stroke-width:0.80000001;stroke-linecap:butt;stroke-linejoin:miter;stroke-miterlimit:4;stroke-dasharray:none;stroke-opacity:1"
         d="M 44.992,113.004 H 153.203" /></g><g
       transform="matrix(1,0,0,-1,0,892.79999)"
       id="g38"><path
         inkscape:connector-curvature="0"
         id="path40"
         style="fill:none;stroke:#000000;stroke-width:0.80000001;stroke-linecap:butt;stroke-linejoin:miter;stroke-miterlimit:4;stroke-dasharray:none;stroke-opacity:1"
         d="M 153.203,113.004 V 331.273" /></g><g
       transform="matrix(1,0,0,-1,0,892.79999)"
       id="g42"><path
         inkscape:connector-curvature="0"
         id="path44"
         style="fill:none;stroke:#000000;stroke-width:0.80000001;stroke-linecap:butt;stroke-linejoin:miter;stroke-miterlimit:4;stroke-dasharray:none;stroke-opacity:1"
         d="M 153.203,331.273 H 44.992" /></g><g
       transform="matrix(1,0,0,-1,0,892.79999)"
       id="g46"><path
         inkscape:connector-curvature="0"
         id="path48"
         style="fill:none;stroke:#000000;stroke-width:0.80000001;stroke-linecap:butt;stroke-linejoin:miter;stroke-miterlimit:4;stroke-dasharray:none;stroke-opacity:1"
         d="M 348.332,335.062 V 116.797" /></g><g
       transform="matrix(1,0,0,-1,0,892.79999)"
       id="g50"><path
         inkscape:connector-curvature="0"
         id="path52"
         style="fill:none;stroke:#000000;stroke-width:0.80000001;stroke-linecap:butt;stroke-linejoin:miter;stroke-miterlimit:4;stroke-dasharray:none;stroke-opacity:1"
         d="M 348.332,116.797 H 558.098" /></g><g
       transform="matrix(1,0,0,-1,0,892.79999)"
       id="g54"><path
         inkscape:connector-curvature="0"
         id="path56"
         style="fill:none;stroke:#000000;stroke-width:0.80000001;stroke-linecap:butt;stroke-linejoin:miter;stroke-miterlimit:4;stroke-dasharray:none;stroke-opacity:1"
         d="M 558.098,116.797 V 335.062" /></g><g
       transform="matrix(1,0,0,-1,0,892.79999)"
       id="g58"><path
         inkscape:connector-curvature="0"
         id="path60"
         style="fill:none;stroke:#000000;stroke-width:0.80000001;stroke-linecap:butt;stroke-linejoin:miter;stroke-miterlimit:4;stroke-dasharray:none;stroke-opacity:1"
         d="M 558.098,335.062 H 348.332" /></g><g
       transform="matrix(1,0,0,-1,0,892.79999)"
       id="g62"><path
         inkscape:connector-curvature="0"
         id="path64"
         style="fill:none;stroke:#000000;stroke-width:0.80000001;stroke-linecap:butt;stroke-linejoin:miter;stroke-miterlimit:4;stroke-dasharray:none;stroke-opacity:1"
         d="M 349.57,566.941 V 348.672" /></g><g
       transform="matrix(1,0,0,-1,0,892.79999)"
       id="g66"><path
         inkscape:connector-curvature="0"
         id="path68"
         style="fill:none;stroke:#000000;stroke-width:0.80000001;stroke-linecap:butt;stroke-linejoin:miter;stroke-miterlimit:4;stroke-dasharray:none;stroke-opacity:1"
         d="M 349.57,348.672 H 559.336" /></g><g
       transform="matrix(1,0,0,-1,0,892.79999)"
       id="g70"><path
         inkscape:connector-curvature="0"
         id="path72"
         style="fill:none;stroke:#000000;stroke-width:0.80000001;stroke-linecap:butt;stroke-linejoin:miter;stroke-miterlimit:4;stroke-dasharray:none;stroke-opacity:1"
         d="M 559.336,348.672 V 566.941" /></g><g
       transform="matrix(1,0,0,-1,0,892.79999)"
       id="g74"><path
         inkscape:connector-curvature="0"
         id="path76"
         style="fill:none;stroke:#000000;stroke-width:0.80000001;stroke-linecap:butt;stroke-linejoin:miter;stroke-miterlimit:4;stroke-dasharray:none;stroke-opacity:1"
         d="M 559.336,566.941 H 349.57" /></g><g
       transform="matrix(1,0,0,-1,0,892.79999)"
       id="g78"><path
         inkscape:connector-curvature="0"
         id="path80"
         style="fill:none;stroke:#000000;stroke-width:0.80000001;stroke-linecap:butt;stroke-linejoin:miter;stroke-miterlimit:4;stroke-dasharray:none;stroke-opacity:1"
         d="M 164.07,333.055 V 114.789" /></g><g
       transform="matrix(1,0,0,-1,0,892.79999)"
       id="g82"><path
         inkscape:connector-curvature="0"
         id="path84"
         style="fill:none;stroke:#000000;stroke-width:0.80000001;stroke-linecap:butt;stroke-linejoin:miter;stroke-miterlimit:4;stroke-dasharray:none;stroke-opacity:1"
         d="M 164.07,114.789 H 334.148" /></g><g
       transform="matrix(1,0,0,-1,0,892.79999)"
       id="g86"><path
         inkscape:connector-curvature="0"
         id="path88"
         style="fill:none;stroke:#000000;stroke-width:0.80000001;stroke-linecap:butt;stroke-linejoin:miter;stroke-miterlimit:4;stroke-dasharray:none;stroke-opacity:1"
         d="M 334.148,114.789 V 333.055" /></g><g
       transform="matrix(1,0,0,-1,0,892.79999)"
       id="g90"><path
         inkscape:connector-curvature="0"
         id="path92"
         style="fill:none;stroke:#000000;stroke-width:0.80000001;stroke-linecap:butt;stroke-linejoin:miter;stroke-miterlimit:4;stroke-dasharray:none;stroke-opacity:1"
         d="M 334.148,333.055 H 164.07" /></g><g
       transform="matrix(1,0,0,-1,0,892.79999)"
       id="g94"><path
         inkscape:connector-curvature="0"
         id="path96"
         style="fill:none;stroke:#000000;stroke-width:0.80000001;stroke-linecap:butt;stroke-linejoin:miter;stroke-miterlimit:4;stroke-dasharray:none;stroke-opacity:1"
         d="M 168.43,564.934 V 346.664" /></g><g
       transform="matrix(1,0,0,-1,0,892.79999)"
       id="g98"><path
         inkscape:connector-curvature="0"
         id="path100"
         style="fill:none;stroke:#000000;stroke-width:0.80000001;stroke-linecap:butt;stroke-linejoin:miter;stroke-miterlimit:4;stroke-dasharray:none;stroke-opacity:1"
         d="M 168.43,346.664 H 338.508" /></g><g
       transform="matrix(1,0,0,-1,0,892.79999)"
       id="g102"><path
         inkscape:connector-curvature="0"
         id="path104"
         style="fill:none;stroke:#000000;stroke-width:0.80000001;stroke-linecap:butt;stroke-linejoin:miter;stroke-miterlimit:4;stroke-dasharray:none;stroke-opacity:1"
         d="m 338.508,346.664 v 218.27" /></g><g
       transform="matrix(1,0,0,-1,0,892.79999)"
       id="g106"><path
         inkscape:connector-curvature="0"
         id="path108"
         style="fill:none;stroke:#000000;stroke-width:0.80000001;stroke-linecap:butt;stroke-linejoin:miter;stroke-miterlimit:4;stroke-dasharray:none;stroke-opacity:1"
         d="M 338.508,564.934 H 168.43" /></g><g
       transform="matrix(1,0,0,-1,0,892.79999)"
       id="g110"><path
         inkscape:connector-curvature="0"
         id="path112"
         style="fill:none;stroke:#000000;stroke-width:0.80000001;stroke-linecap:butt;stroke-linejoin:miter;stroke-miterlimit:4;stroke-dasharray:none;stroke-opacity:1"
         d="m 476.871,106.75 v -72" /></g><g
       transform="matrix(1,0,0,-1,0,892.79999)"
       id="g114"><path
         inkscape:connector-curvature="0"
         id="path116"
         style="fill:none;stroke:#000000;stroke-width:0.80000001;stroke-linecap:butt;stroke-linejoin:miter;stroke-miterlimit:4;stroke-dasharray:none;stroke-opacity:1"
         d="m 476.871,34.75 h 72" /></g><g
       transform="matrix(1,0,0,-1,0,892.79999)"
       id="g118"><path
         inkscape:connector-curvature="0"
         id="path120"
         style="fill:none;stroke:#000000;stroke-width:0.80000001;stroke-linecap:butt;stroke-linejoin:miter;stroke-miterlimit:4;stroke-dasharray:none;stroke-opacity:1"
         d="m 548.871,34.75 v 72" /></g><g
       transform="matrix(1,0,0,-1,0,892.79999)"
       id="g122"><path
         inkscape:connector-curvature="0"
         id="path124"
         style="fill:none;stroke:#000000;stroke-width:0.80000001;stroke-linecap:butt;stroke-linejoin:miter;stroke-miterlimit:4;stroke-dasharray:none;stroke-opacity:1"
         d="m 548.871,106.75 h -72" /></g><path
       inkscape:connector-curvature="0"
       id="path126"
       style="fill:#000000;fill-opacity:1;fill-rule:nonzero;stroke:none"
       d="m 483.371,839.12 h 2.578 v 8.907 l -2.797,-0.563 v 1.438 l 2.782,0.562 h 1.578 V 839.12 h 2.578 v -1.328 h -6.719 z m 14.813,7.422 h 1.437 v -8.75 h -1.437 z m 0,3.406 h 1.437 v -1.812 h -1.437 z m 11.703,-6.875 v -5.281 h -1.438 v 5.235 c 0,0.832 -0.164,1.453 -0.484,1.859 -0.324,0.414 -0.809,0.625 -1.453,0.625 -0.774,0 -1.383,-0.25 -1.828,-0.75 -0.45,-0.492 -0.672,-1.164 -0.672,-2.016 v -4.953 h -1.453 v 8.75 h 1.453 v -1.359 c 0.343,0.531 0.742,0.926 1.203,1.187 0.469,0.258 1.008,0.391 1.625,0.391 1,0 1.754,-0.313 2.265,-0.938 0.52,-0.625 0.782,-1.543 0.782,-2.75 z m 9.187,3.141 v -1.344 c -0.406,0.219 -0.82,0.383 -1.234,0.5 -0.406,0.114 -0.82,0.172 -1.235,0.172 -0.929,0 -1.652,-0.297 -2.171,-0.89 -0.512,-0.594 -0.766,-1.422 -0.766,-2.485 0,-1.074 0.254,-1.906 0.766,-2.5 0.519,-0.586 1.242,-0.875 2.171,-0.875 0.415,0 0.829,0.051 1.235,0.156 0.414,0.114 0.828,0.286 1.234,0.516 v -1.328 c -0.406,-0.188 -0.824,-0.328 -1.25,-0.422 -0.429,-0.102 -0.886,-0.156 -1.375,-0.156 -1.312,0 -2.359,0.414 -3.14,1.25 -0.774,0.832 -1.157,1.953 -1.157,3.359 0,1.426 0.391,2.547 1.172,3.36 0.781,0.82 1.852,1.234 3.219,1.234 0.445,0 0.879,-0.047 1.297,-0.141 0.426,-0.093 0.836,-0.23 1.234,-0.406 z m 9.781,-3.141 v -5.281 h -1.437 v 5.235 c 0,0.832 -0.164,1.453 -0.484,1.859 -0.325,0.414 -0.809,0.625 -1.454,0.625 -0.773,0 -1.382,-0.25 -1.828,-0.75 -0.449,-0.492 -0.672,-1.164 -0.672,-2.016 v -4.953 h -1.453 v 12.156 h 1.453 v -4.765 c 0.344,0.531 0.743,0.926 1.204,1.187 0.468,0.258 1.007,0.391 1.625,0.391 1,0 1.753,-0.313 2.265,-0.938 0.52,-0.625 0.781,-1.543 0.781,-2.75 z" /><path
       inkscape:connector-curvature="0"
       id="path128"
       style="fill:#000000;fill-opacity:1;fill-rule:nonzero;stroke:none"
       d="m 487.137,825.87 c -0.137,0.082 -0.289,0.141 -0.453,0.172 -0.168,0.039 -0.352,0.063 -0.547,0.063 -0.719,0 -1.274,-0.235 -1.657,-0.703 -0.375,-0.461 -0.562,-1.122 -0.562,-1.985 v -4.031 h -1.266 v 7.656 h 1.266 v -1.187 c 0.27,0.468 0.613,0.812 1.031,1.031 0.426,0.226 0.942,0.344 1.547,0.344 0.094,0 0.192,-0.008 0.297,-0.016 0.102,-0.012 0.219,-0.031 0.344,-0.062 z m 7.75,-2.343 v -0.61 h -5.797 c 0.062,-0.867 0.32,-1.527 0.781,-1.984 0.469,-0.449 1.117,-0.672 1.953,-0.672 0.488,0 0.957,0.055 1.406,0.172 0.458,0.113 0.911,0.289 1.36,0.531 v -1.187 c -0.461,-0.188 -0.93,-0.336 -1.406,-0.438 -0.469,-0.102 -0.946,-0.156 -1.422,-0.156 -1.231,0 -2.203,0.351 -2.922,1.062 -0.711,0.719 -1.063,1.68 -1.063,2.891 0,1.258 0.336,2.254 1.016,2.984 0.676,0.739 1.594,1.11 2.75,1.11 1.031,0 1.844,-0.336 2.437,-1 0.602,-0.657 0.907,-1.559 0.907,-2.703 z m -1.266,0.375 c -0.012,0.687 -0.203,1.234 -0.578,1.64 -0.375,0.414 -0.871,0.625 -1.484,0.625 -0.711,0 -1.278,-0.203 -1.704,-0.609 -0.417,-0.399 -0.656,-0.953 -0.718,-1.672 z m 7.453,6.125 v -1.047 h -1.203 c -0.461,0 -0.777,-0.094 -0.953,-0.282 -0.168,-0.179 -0.25,-0.507 -0.25,-0.984 v -0.672 h 2.062 v -0.984 h -2.062 v -6.672 h -1.266 v 6.672 h -1.203 v 0.984 h 1.203 v 0.531 c 0,0.852 0.196,1.473 0.594,1.86 0.395,0.394 1.02,0.594 1.875,0.594 z m 7.735,-6.5 v -0.61 h -5.797 c 0.062,-0.867 0.32,-1.527 0.781,-1.984 0.469,-0.449 1.117,-0.672 1.953,-0.672 0.488,0 0.957,0.055 1.406,0.172 0.457,0.113 0.91,0.289 1.36,0.531 v -1.187 c -0.461,-0.188 -0.93,-0.336 -1.407,-0.438 -0.468,-0.102 -0.945,-0.156 -1.421,-0.156 -1.231,0 -2.204,0.351 -2.922,1.062 -0.711,0.719 -1.063,1.68 -1.063,2.891 0,1.258 0.336,2.254 1.016,2.984 0.676,0.739 1.594,1.11 2.75,1.11 1.031,0 1.844,-0.336 2.437,-1 0.602,-0.657 0.907,-1.559 0.907,-2.703 z m -1.266,0.375 c -0.012,0.687 -0.203,1.234 -0.578,1.64 -0.375,0.414 -0.871,0.625 -1.485,0.625 -0.71,0 -1.277,-0.203 -1.703,-0.609 -0.418,-0.399 -0.656,-0.953 -0.718,-1.672 z m 8,1.968 c -0.137,0.082 -0.289,0.141 -0.453,0.172 -0.168,0.039 -0.352,0.063 -0.547,0.063 -0.719,0 -1.273,-0.235 -1.656,-0.703 -0.375,-0.461 -0.563,-1.122 -0.563,-1.985 v -4.031 h -1.265 v 7.656 h 1.265 v -1.187 c 0.27,0.468 0.614,0.812 1.031,1.031 0.426,0.226 0.942,0.344 1.547,0.344 0.094,0 0.192,-0.008 0.297,-0.016 0.102,-0.012 0.219,-0.031 0.344,-0.062 z m 7.75,-2.343 v -0.61 h -5.797 c 0.063,-0.867 0.32,-1.527 0.781,-1.984 0.469,-0.449 1.118,-0.672 1.953,-0.672 0.489,0 0.958,0.055 1.407,0.172 0.457,0.113 0.91,0.289 1.359,0.531 v -1.187 c -0.461,-0.188 -0.93,-0.336 -1.406,-0.438 -0.469,-0.102 -0.945,-0.156 -1.422,-0.156 -1.23,0 -2.203,0.351 -2.922,1.062 -0.711,0.719 -1.062,1.68 -1.062,2.891 0,1.258 0.336,2.254 1.015,2.984 0.676,0.739 1.594,1.11 2.75,1.11 1.031,0 1.844,-0.336 2.438,-1 0.601,-0.657 0.906,-1.559 0.906,-2.703 z m -1.266,0.375 c -0.011,0.687 -0.203,1.234 -0.578,1.64 -0.375,0.414 -0.871,0.625 -1.484,0.625 -0.711,0 -1.277,-0.203 -1.703,-0.609 -0.418,-0.399 -0.657,-0.953 -0.719,-1.672 z m 9.938,0.109 v -4.625 h -1.266 v 4.578 c 0,0.727 -0.14,1.27 -0.422,1.625 -0.281,0.363 -0.703,0.547 -1.265,0.547 -0.68,0 -1.215,-0.219 -1.61,-0.656 -0.398,-0.43 -0.593,-1.016 -0.593,-1.766 v -4.328 h -1.266 v 7.656 h 1.266 v -1.187 c 0.3,0.457 0.656,0.8 1.062,1.031 0.414,0.226 0.891,0.344 1.422,0.344 0.875,0 1.535,-0.278 1.984,-0.828 0.457,-0.543 0.688,-1.34 0.688,-2.391 z m 8.281,2.734 v -1.172 c -0.355,0.196 -0.715,0.344 -1.078,0.438 -0.356,0.101 -0.715,0.156 -1.078,0.156 -0.813,0 -1.449,-0.262 -1.906,-0.781 -0.45,-0.524 -0.672,-1.246 -0.672,-2.172 0,-0.937 0.222,-1.668 0.672,-2.187 0.457,-0.512 1.093,-0.766 1.906,-0.766 0.363,0 0.722,0.047 1.078,0.141 0.363,0.093 0.723,0.238 1.078,0.437 v -1.156 c -0.355,-0.168 -0.719,-0.293 -1.094,-0.375 -0.375,-0.082 -0.773,-0.125 -1.187,-0.125 -1.156,0 -2.078,0.359 -2.766,1.078 -0.679,0.726 -1.015,1.711 -1.015,2.953 0,1.238 0.343,2.219 1.031,2.938 0.687,0.718 1.629,1.078 2.828,1.078 0.383,0 0.758,-0.043 1.125,-0.125 0.375,-0.075 0.734,-0.196 1.078,-0.36 z m 8.981,-3.218 v -0.61 h -5.797 c 0.062,-0.867 0.32,-1.527 0.781,-1.984 0.469,-0.449 1.117,-0.672 1.953,-0.672 0.488,0 0.957,0.055 1.406,0.172 0.457,0.113 0.91,0.289 1.36,0.531 v -1.187 c -0.461,-0.188 -0.93,-0.336 -1.407,-0.438 -0.468,-0.102 -0.945,-0.156 -1.421,-0.156 -1.231,0 -2.204,0.351 -2.922,1.062 -0.711,0.719 -1.063,1.68 -1.063,2.891 0,1.258 0.336,2.254 1.016,2.984 0.676,0.739 1.594,1.11 2.75,1.11 1.031,0 1.844,-0.336 2.437,-1 0.602,-0.657 0.907,-1.559 0.907,-2.703 z m -1.266,0.375 c -0.012,0.687 -0.203,1.234 -0.578,1.64 -0.375,0.414 -0.871,0.625 -1.485,0.625 -0.71,0 -1.277,-0.203 -1.703,-0.609 -0.418,-0.399 -0.656,-0.953 -0.718,-1.672 z" /><path
       inkscape:connector-curvature="0"
       id="path130"
       style="fill:#000000;fill-opacity:1;fill-rule:nonzero;stroke:none"
       d="m 489.199,808.214 v -1.344 c -0.406,0.219 -0.82,0.383 -1.234,0.5 -0.406,0.114 -0.82,0.172 -1.235,0.172 -0.929,0 -1.652,-0.297 -2.171,-0.89 -0.512,-0.594 -0.766,-1.422 -0.766,-2.485 0,-1.074 0.254,-1.906 0.766,-2.5 0.519,-0.586 1.242,-0.875 2.171,-0.875 0.415,0 0.829,0.051 1.235,0.156 0.414,0.114 0.828,0.286 1.234,0.516 v -1.328 c -0.406,-0.188 -0.824,-0.328 -1.25,-0.422 -0.429,-0.102 -0.887,-0.156 -1.375,-0.156 -1.312,0 -2.359,0.414 -3.14,1.25 -0.774,0.832 -1.157,1.953 -1.157,3.359 0,1.426 0.391,2.547 1.172,3.36 0.781,0.82 1.852,1.234 3.219,1.234 0.445,0 0.879,-0.047 1.297,-0.141 0.426,-0.093 0.836,-0.23 1.234,-0.406 z m 2.36,-4.969 v 5.297 h 1.437 v -5.234 c 0,-0.836 0.16,-1.461 0.484,-1.875 0.321,-0.406 0.805,-0.61 1.454,-0.61 0.781,0 1.394,0.243 1.843,0.735 0.446,0.5 0.672,1.176 0.672,2.031 v 4.953 h 1.438 v -8.75 h -1.438 v 1.344 c -0.344,-0.531 -0.75,-0.93 -1.219,-1.188 -0.46,-0.257 -0.992,-0.39 -1.593,-0.39 -1.012,0 -1.778,0.312 -2.297,0.937 -0.524,0.633 -0.781,1.551 -0.781,2.75 z m 3.625,5.516 z m 12.968,-4.594 c 0,1.051 -0.218,1.879 -0.656,2.485 -0.437,0.601 -1.039,0.906 -1.797,0.906 -0.761,0 -1.359,-0.305 -1.797,-0.906 -0.429,-0.606 -0.64,-1.434 -0.64,-2.485 0,-1.062 0.211,-1.898 0.64,-2.5 0.438,-0.594 1.036,-0.89 1.797,-0.89 0.758,0 1.36,0.296 1.797,0.89 0.438,0.602 0.656,1.438 0.656,2.5 z m -4.89,3.047 c 0.3,0.52 0.679,0.906 1.14,1.156 0.457,0.258 1.008,0.391 1.657,0.391 1.062,0 1.921,-0.422 2.578,-1.266 0.664,-0.843 1,-1.953 1,-3.328 0,-1.375 -0.336,-2.492 -1,-3.344 -0.657,-0.843 -1.516,-1.265 -2.578,-1.265 -0.649,0 -1.2,0.125 -1.657,0.375 -0.461,0.258 -0.84,0.648 -1.14,1.172 v -1.313 h -1.453 v 12.156 h 1.453 z m 16.25,-2.687 v -0.704 h -6.61 c 0.063,-0.992 0.36,-1.746 0.891,-2.265 0.531,-0.512 1.273,-0.766 2.234,-0.766 0.551,0 1.082,0.067 1.594,0.203 0.52,0.133 1.035,0.336 1.547,0.61 v -1.36 c -0.512,-0.218 -1.039,-0.386 -1.578,-0.5 -0.543,-0.125 -1.094,-0.187 -1.656,-0.187 -1.399,0 -2.5,0.406 -3.313,1.219 -0.812,0.82 -1.219,1.925 -1.219,3.312 0,1.426 0.383,2.563 1.157,3.406 0.769,0.844 1.812,1.266 3.125,1.266 1.175,0 2.109,-0.383 2.796,-1.141 0.688,-0.761 1.032,-1.793 1.032,-3.093 z m -1.438,0.421 c -0.012,0.789 -0.234,1.422 -0.672,1.891 -0.429,0.469 -0.996,0.703 -1.703,0.703 -0.804,0 -1.445,-0.23 -1.922,-0.687 -0.48,-0.45 -0.757,-1.086 -0.828,-1.907 z" /><g
       transform="matrix(1,0,0,-1,0,892.79999)"
       id="g132"><path
         inkscape:connector-curvature="0"
         id="path134"
         style="fill:none;stroke:#000000;stroke-width:0.80000001;stroke-linecap:butt;stroke-linejoin:miter;stroke-miterlimit:4;stroke-dasharray:none;stroke-opacity:1"
         d="M 45.227,854.965 V 597.863" /></g><g
       transform="matrix(1,0,0,-1,0,892.79999)"
       id="g136"><path
         inkscape:connector-curvature="0"
         id="path138"
         style="fill:none;stroke:#000000;stroke-width:0.80000001;stroke-linecap:butt;stroke-linejoin:miter;stroke-miterlimit:4;stroke-dasharray:none;stroke-opacity:1"
         d="M 45.227,597.863 H 600.816" /></g><g
       transform="matrix(1,0,0,-1,0,892.79999)"
       id="g140"><path
         inkscape:connector-curvature="0"
         id="path142"
         style="fill:none;stroke:#000000;stroke-width:0.80000001;stroke-linecap:butt;stroke-linejoin:miter;stroke-miterlimit:4;stroke-dasharray:none;stroke-opacity:1"
         d="M 600.816,597.863 V 854.965" /></g><g
       transform="matrix(1,0,0,-1,0,892.79999)"
       id="g144"><path
         inkscape:connector-curvature="0"
         id="path146"
         style="fill:none;stroke:#000000;stroke-width:0.80000001;stroke-linecap:butt;stroke-linejoin:miter;stroke-miterlimit:4;stroke-dasharray:none;stroke-opacity:1"
         d="M 600.816,854.965 H 45.227" /></g></g></svg>